<svg width="18" height="18" viewBox="0 0 18 18" fill="none" xmlns="http://www.w3.org/2000/svg">
<path fill-rule="evenodd" clip-rule="evenodd" d="M17.3547 3.59922C17.2359 3.45709 17.0602 3.37497 16.875 3.375H4.27187L3.88984 1.27656C3.78186 0.682187 3.26426 0.250087 2.66016 0.25H1.25C0.904822 0.25 0.625 0.529822 0.625 0.875C0.625 1.22018 0.904822 1.5 1.25 1.5H2.65625L4.65312 12.4602C4.71195 12.7852 4.8556 13.0889 5.06953 13.3406C4.24996 14.1061 4.14205 15.3674 4.81967 16.261C5.49729 17.1546 6.74093 17.391 7.69916 16.8084C8.6574 16.2257 9.01981 15.0128 8.53828 14H12.0867C11.9469 14.2927 11.8745 14.6131 11.875 14.9375C11.875 16.1456 12.8544 17.125 14.0625 17.125C15.2706 17.125 16.25 16.1456 16.25 14.9375C16.25 13.7294 15.2706 12.75 14.0625 12.75H6.49766C6.1956 12.75 5.9368 12.5339 5.88281 12.2367L5.63516 10.875H14.6977C15.6038 10.8749 16.3802 10.2267 16.5422 9.33516L17.4922 4.11172C17.5247 3.92894 17.4744 3.74115 17.3547 3.59922ZM7.5 14.9375C7.5 15.4553 7.08027 15.875 6.5625 15.875C6.04473 15.875 5.625 15.4553 5.625 14.9375C5.625 14.4197 6.04473 14 6.5625 14C7.08027 14 7.5 14.4197 7.5 14.9375ZM15 14.9375C15 15.4553 14.5803 15.875 14.0625 15.875C13.5447 15.875 13.125 15.4553 13.125 14.9375C13.125 14.4197 13.5447 14 14.0625 14C14.5803 14 15 14.4197 15 14.9375ZM15.3125 9.11172C15.2584 9.40978 14.9982 9.62609 14.6953 9.625H5.40781L4.49922 4.625H16.1258L15.3125 9.11172Z" fill="#171212"/>
</svg>
